<svg xmlns="http://www.w3.org/2000/svg" viewBox="0 0 348.58 346.78"><defs><style>.cls-1{fill:#231f20;stroke:#231f20;stroke-miterlimit:10;}</style></defs><g id="Layer_2" data-name="Layer 2"><g id="Layer_2-2" data-name="Layer 2"><path class="cls-1" d="M58.2,42.68a215.32,215.32,0,0,1,75.34-36C145,3.75,161.09-.19,182.42.6c35.48,1.31,61,14.79,74.58,22.18,12.3,6.67,39.9,22.06,61,53.41,3.17,4.72,8.26,10.17,7,11.59-1.95,2.31-17.35-9.32-44.34-24.69A479.87,479.87,0,0,0,233.82,39.4c-18-7.74-30.68-13.06-48.88-16.12-13.43-2.26-24.54-2.39-35.78-2.52-11.07-.13-20.23-.19-32.25,2-7.75,1.42-13.11,3.12-22.17,6A389.21,389.21,0,0,0,58.2,42.68Z"/><path class="cls-1" d="M9.58,115.5C8.45,113.91,22.44,102,32.27,94.6A181.77,181.77,0,0,1,61.48,76.7c30.85-14.83,60.45-16.14,74.58-16.63,24.49-.86,42,2.61,69.54,8.06,25.63,5.07,43.59,10.91,61,16.63,31.35,10.31,42.5,16.75,50.39,22.17,13.55,9.3,31.33,25.06,28.22,31.24-1.48,2.94-7,2.42-25.7,1.52-33.75-1.63-31.64-.69-38.8-1.52-19.12-2.21-28.42-8.27-63.5-24.69C179.45,95.82,160.58,87,145.13,83.75c-10.58-2.22-35.45-7.18-65-1C38,91.54,11.17,117.76,9.58,115.5Z"/><path class="cls-1" d="M3,148.76C2.44,147.64,27.5,127.61,64,118a173.94,173.94,0,0,1,60.47-4.54c22.46,2.23,39.18,8.32,56.44,14.62,26.65,9.71,27.49,14,48.88,20.15,19.36,5.62,35.19,6.9,50.39,8.07,37.1,2.83,65.4-1.16,67.73,7a8.05,8.05,0,0,1-.7,5.13c-2.12,4.42-7.72,5.4-13.61,7.06-9.73,2.74-7.88,3.85-19.15,7.55-2.73.9-24.64,8-45.86,8.57-42.69,1.21-79-23.89-88.18-30.23-12.53-8.67-20.37-16.64-37.8-23.19a136.45,136.45,0,0,0-33.26-7.55c-10-1-17.21-.66-30.23,0-13.56.68-23.69,1.19-35.28,3.52C18.45,139.25,3.47,149.61,3,148.76Z"/><path class="cls-1" d="M.5,179.5c-.45-2,30.56-13.56,67-17.14,15.6-1.53,29.2-2.86,46.86.51,11.36,2.16,16.09,4.68,52.91,20.66,27.86,12.08,41.9,18.15,47.37,19.65a174.59,174.59,0,0,0,63,5c36.91-3.86,64.43-19.19,68.11-12.68,1.15,2.05-.41,5.6-1.08,7.14-1.81,4.11-5.19,6.45-11.59,10.08-10.37,5.86-14.62,7.55-14.62,7.55-19.42,7.75-29.13,11.63-34.26,13.11-14.84,4.27-30.81,8.87-49.39,7.56-18.06-1.28-32.19-8.58-60.47-23.19-18.74-9.67-24.11-14.49-44.35-23.18a230.88,230.88,0,0,0-31.24-11.08,188.27,188.27,0,0,0-31.24-6.05c-14.46-1.49-25.65-.83-39.81,0C8.19,178.63.72,180.47.5,179.5Z"/><path class="cls-1" d="M5.28,212.55c.55-2.44,16.53-.74,48.14,2.73,21.76,2.38,32.84,3.62,42.83,6,13.15,3.19,13.67,4.7,39.31,13.1,11.19,3.67,26,8.54,42.33,12.6,14.85,3.71,30.59,7.63,50.89,9.07,26.58,1.89,54.79,3.9,82.14-10.58,11.84-6.26,21.6-14.6,24.19-12.09s-3.6,13.06-8.56,19.65c-6.93,9.21-15.86,16.16-29.74,23.18-10.88,5.51-29.16,14.54-55.43,17.13-24.39,2.41-43-2-59.46-6-13.64-3.36-26.06-8.45-50.9-18.65-21.9-9-20.68-9.44-63-27.71-11.12-4.81-22.11-9.88-33.26-14.62C12.63,217,4.89,214.29,5.28,212.55Z"/><path class="cls-1" d="M30.24,269.2C27.88,272,47,294,69,310.52a181.3,181.3,0,0,0,32.75,19.65,179.14,179.14,0,0,0,51.4,14.61,181.11,181.11,0,0,0,63.5-3A168.73,168.73,0,0,0,259,326.14c12.22-6.7,20.17-13.26,29.73-21.17,6-5,14-11.6,13.1-13.1-1.1-1.75-13.06,5.74-31.74,12.1-13.2,4.48-23.58,6.18-44.35,9.57-17.87,2.92-29.84,4.87-43.35,5.58-10.88.56-44.35,1.44-81.12-11.12C56.26,292.61,32.83,266.13,30.24,269.2Z"/></g></g></svg>